<svg id="Layer_1" data-name="Layer 1" xmlns="http://www.w3.org/2000/svg" width="256" height="256" viewBox="0 0 256 256"><title>card-contact</title><path d="M21.4,128c28.8,0,46.1-8.7,46.1-17.3V98.9C46.7,107.1,20.6,109.1.3,109.4,1.4,118.4,6.2,128,21.4,128Z" fill="#3f51b5"/><path d="M254.8,93.4s-2.9-23.1-14.4-40.3S185.6,21.4,128,21.4,27.1,35.8,15.6,53.1,1.2,93.4,1.2,93.4A51.1,51.1,0,0,0,0,103.5c20.7-.2,47.7-2.4,67.5-10.9V81.9c0-8.6,14.4-23.1,60.5-23.1s60.5,14.4,60.5,23.1V92.6c19.8,8.5,46.8,10.6,67.5,10.9A51.2,51.2,0,0,0,254.8,93.4Z" fill="#3f51b5"/><path d="M188.5,110.7c0,8.6,17.3,17.3,46.1,17.3,15.2,0,19.9-9.6,21-18.6-20.3-.3-46.4-2.3-67.2-10.5Z" fill="#3f51b5"/><path d="M187.6,122.2c-4.2-4.7-7.7-13.8-7.7-20.1V94.9a11.6,11.6,0,0,0-11.5-11.5h-8.6c-6.3,0-11.5,3.3-11.5,7.2s-5.2,5.8-11.5,5.8H119.4c-6.3,0-11.5-1.8-11.5-5.8s-5.2-7.2-11.5-7.2H87.7A11.6,11.6,0,0,0,76.1,94.9v7.2c0,6.3-3.4,15.4-7.7,20.1L34.8,159.7c-4.2,4.7-7.7,13.8-7.7,20.1v43.2a11.6,11.6,0,0,0,11.5,11.5H217.3a11.6,11.6,0,0,0,11.5-11.5V179.9c0-6.3-3.5-15.4-7.7-20.1ZM69.8,159c0-4.5,5.2-8.2,11.6-8.2s11.6,3.7,11.6,8.2-5.2,8.1-11.6,8.1S69.8,163.5,69.8,159Zm33.5,28.8a15.4,15.4,0,0,1-16.5,0c-4.6-3.2-4.5-8.3,0-11.5a15.4,15.4,0,0,1,16.5,0C107.9,179.4,107.9,184.6,103.3,187.8Zm0-46.1a15.4,15.4,0,0,1-16.5,0c-4.5-3.2-4.6-8.3,0-11.5a15.3,15.3,0,0,1,16.5,0C107.9,133.4,107.9,138.5,103.3,141.7Zm24.7,58c-6.4,0-11.6-3.7-11.6-8.2s5.2-8.1,11.6-8.1,11.6,3.6,11.6,8.1S134.4,199.7,128,199.7Zm0-65.2c-6.4,0-11.6-3.7-11.6-8.2s5.2-8.1,11.6-8.1,11.6,3.6,11.6,8.1S134.4,134.5,128,134.5Zm24.7-4.4a15.3,15.3,0,0,1,16.5,0c4.5,3.2,4.5,8.3,0,11.5a15.4,15.4,0,0,1-16.5,0C148.1,138.5,148.2,133.4,152.7,130.2Zm16.4,57.6a15.4,15.4,0,0,1-16.5,0c-4.5-3.2-4.5-8.3,0-11.5a15.4,15.4,0,0,1,16.5,0C173.7,179.4,173.7,184.6,169.1,187.8Zm5.4-20.7c-6.4,0-11.6-3.6-11.6-8.1s5.2-8.2,11.6-8.2,11.6,3.7,11.6,8.2S181,167.1,174.6,167.1Z" fill="#3f51b5"/></svg>