<svg id="Layer_1" data-name="Layer 1" xmlns="http://www.w3.org/2000/svg" width="256" height="256" viewBox="0 0 256 256"><title>card-candy</title><path d="M128.3,0A128,128,0,0,0,.3,128a129.8,129.8,0,0,0,4.5,32.8h0l1.1,3.9h0L7,167.5H7C23.7,219.8,73.2,256,128.3,256A127.5,127.5,0,0,0,255.7,135.8h0v-7.2A127.3,127.3,0,0,0,128.3,0Zm0,89.6A38.4,38.4,0,1,1,89.9,128,38.5,38.5,0,0,1,128.3,89.6Zm0,159.7c-51.8,0-98.5-33.9-114.6-82.4,1.7,0,3.3-.6,4.5-.6h7.8c10,1.7,17.3,8.9,25,16.7,5.6,5.6,11.7,11.7,19.5,15.6,10,5,21.7,6.1,31.7,6.7,3.9,0,7.2.6,11.1.6,7.8,0,14.5-1.1,19.5-3.3a43.7,43.7,0,0,0,10-6.1c3.3-2.2,6.1-4.5,9.5-6.1a20,20,0,0,1,6.1-1.1c3.9,0,7.8,1.1,9.5,5a10.8,10.8,0,0,1,.6,4.5c0,2.8,0,5.6,1.7,7.8a1.2,1.2,0,0,0,1.1,1.1l1.1,1.1a11.3,11.3,0,0,0,8.3,3.3h.6a10.8,10.8,0,0,0,4.5-.6,22.8,22.8,0,0,0,11.1-8.9,69,69,0,0,0,13.4-28.9,37.6,37.6,0,0,0,1.1-7.8,57.1,57.1,0,0,1,2.8-13.4c1.7-5,6.1-11.1,12.2-11.7h6.1a9.5,9.5,0,0,1,3.9.6h6.7a2,2,0,0,0,1.7-.6c.6,0,1.1-.6,2.2-.6s1.1,0,1.1-.6h.6C243.5,200.9,191.7,249.3,128.3,249.3Z" fill="#3f51b5"/></svg>