<svg id="Layer_1" data-name="Layer 1" xmlns="http://www.w3.org/2000/svg" width="256" height="256" viewBox="0 0 256 256"><title>Artboard 1</title><path d="M234.3,126.5A74.1,74.1,0,0,0,160,3.3l-1,.4A73.9,73.9,0,0,0,111.1,96a3.2,3.2,0,0,0,.3,1,73.5,73.5,0,0,0,15.8,27.1L1,250.4A3.3,3.3,0,1,0,5.6,255L131.8,128.7a73.9,73.9,0,0,0,15.5,11h.1a74.2,74.2,0,0,0,56.2,5.1l.8-.3A73.6,73.6,0,0,0,234.3,126.5Zm-4.6-4.6A67.1,67.1,0,0,1,203,138.3c-26.4-8.5-31.9-23.6-31.7-34.9a40.2,40.2,0,0,1,6.8-21.4,45.8,45.8,0,0,0,12.3,24.9A36.8,36.8,0,0,0,217.3,118a54.3,54.3,0,0,0,18.8-3.7A68.3,68.3,0,0,1,229.7,121.9Zm-95.5-.1-.5-.4a67.1,67.1,0,0,1-15.9-26.2c8.5-26.4,23.5-31.8,34.9-31.7a40.2,40.2,0,0,1,21.4,6.8,45.8,45.8,0,0,0-24.9,12.3c-7.1,6.9-16.5,21.5-7.5,45.7a67.6,67.6,0,0,1-7.1-6ZM246,52.9c-8.5,26.5-23.7,31.8-35,31.8a40.2,40.2,0,0,1-21.4-6.8,45.9,45.9,0,0,0,24.9-12.3c7.1-6.9,16.5-21.5,7.5-45.7a65.8,65.8,0,0,1,24,33ZM134,26.3A67.1,67.1,0,0,1,160.7,10c26.4,8.5,31.9,23.6,31.7,34.9a40.2,40.2,0,0,1-6.8,21.4,45.8,45.8,0,0,0-12.3-24.9c-6.9-7.1-21.5-16.5-45.7-7.5A67.5,67.5,0,0,1,134,26.3Z" fill="#2196f3"/></svg>