<svg id="Layer_1" data-name="Layer 1" xmlns="http://www.w3.org/2000/svg" width="256" height="256" viewBox="0 0 256 256"><title>Artboard 1</title><path d="M159.9,120.6a52.1,52.1,0,0,0-30.6-94A51.7,51.7,0,0,0,77.6,78.2a53.1,53.1,0,0,0,21.1,42.4C69.4,132.5,48.8,162.4,48.8,196c0,44.7,161.1,44.7,161.1,0C209.8,162.5,189.2,132.4,159.9,120.6Z" fill="#2196f3"/><path d="M219.3,121.9a38.1,38.1,0,0,0-35.9-66.5A58.6,58.6,0,0,1,188,78.3a59.3,59.3,0,0,1-15.7,40.1c27.3,15.3,44.5,44.4,44.5,76.8a24.3,24.3,0,0,1-.3,4c21.8-2.7,39.5-10.2,39.5-22.3C256,150.8,240.8,130.6,219.3,121.9Z" fill="#2196f3"/><path d="M41.8,195.2c0-31.8,16.6-60.4,43-75.9l1.2-1.1a59.6,59.6,0,0,1-15.4-40,58.3,58.3,0,0,1,4.2-21.8A38,38,0,0,0,21.2,91a38.4,38.4,0,0,0,15.5,30.9C15.2,130.6,0,150.8,0,177c0,12.6,19.2,20.2,42.2,22.6A24.5,24.5,0,0,1,41.8,195.2Z" fill="#2196f3"/></svg>