<svg id="Layer_1" data-name="Layer 1" xmlns="http://www.w3.org/2000/svg" width="1792" height="256" viewBox="0 0 1792 256"><title>card-sprite</title><path d="M128.3,11a117,117,0,0,0-117,117,118.6,118.6,0,0,0,4.1,30h0l1,3.6h0l1,2.5h0C32.6,211.9,77.9,245,128.3,245A116.6,116.6,0,0,0,244.7,135.1h0v-6.6A116.4,116.4,0,0,0,128.3,11Zm0,81.9A35.1,35.1,0,1,1,93.2,128,35.2,35.2,0,0,1,128.3,92.9Zm0,146c-47.3,0-90-31-104.8-75.3,1.5,0,3.1-.5,4.1-.5h7.1c9.2,1.5,15.8,8.1,22.9,15.3,5.1,5.1,10.7,10.7,17.8,14.2,9.2,4.6,19.8,5.6,29,6.1,3.6,0,6.6.5,10.2.5,7.1,0,13.2-1,17.8-3.1a39.9,39.9,0,0,0,9.2-5.6c3.1-2,5.6-4.1,8.6-5.6a18.3,18.3,0,0,1,5.6-1c3.6,0,7.1,1,8.6,4.6a9.9,9.9,0,0,1,.5,4.1c0,2.5,0,5.1,1.5,7.1a1.1,1.1,0,0,0,1,1l1,1a10.4,10.4,0,0,0,7.6,3.1h.5a9.9,9.9,0,0,0,4.1-.5,20.8,20.8,0,0,0,10.2-8.1A63.1,63.1,0,0,0,203,169.7a34.4,34.4,0,0,0,1-7.1,52.2,52.2,0,0,1,2.5-12.2c1.5-4.6,5.6-10.2,11.2-10.7h5.6a8.7,8.7,0,0,1,3.6.5H233a1.9,1.9,0,0,0,1.5-.5c.5,0,1-.5,2-.5s1,0,1-.5h.5C233.6,194.6,186.2,238.9,128.3,238.9Z" fill="#3f51b5"/><path d="M267,55.3V99.7L407.7,240.4a15.7,15.7,0,0,0,22.2,0l66.5-66.5a15.7,15.7,0,0,0,0-22.2L355.7,11H311.3Zm73.5,28.3a15.7,15.7,0,1,1,0-22.2A15.7,15.7,0,0,1,340.5,83.7Z" fill="#3f51b5"/><path d="M669.2,121.2a47.7,47.7,0,0,0-28-86,47.2,47.2,0,0,0-47.3,47.2,48.5,48.5,0,0,0,19.3,38.8c-26.8,10.9-45.6,38.2-45.6,68.9,0,40.8,147.2,40.8,147.2,0C714.8,159.5,696,132.1,669.2,121.2Z" fill="#3f51b5"/><path d="M723.5,122.4a34.9,34.9,0,0,0-32.8-60.7,53.6,53.6,0,0,1,4.2,20.9,54.2,54.2,0,0,1-14.3,36.7c25,14,40.7,40.6,40.7,70.2a22.2,22.2,0,0,1-.3,3.7c19.9-2.5,36.1-9.3,36.1-20.4C757,148.9,743.1,130.4,723.5,122.4Z" fill="#3f51b5"/><path d="M561.2,189.5a80,80,0,0,1,39.3-69.4l1.1-1a54.5,54.5,0,0,1-14.1-36.6,53.3,53.3,0,0,1,3.9-19.9,34.8,34.8,0,0,0-49,31.7,35.1,35.1,0,0,0,14.2,28.2c-19.7,8-33.5,26.5-33.5,50.3,0,11.5,17.6,18.4,38.6,20.7A22.4,22.4,0,0,1,561.2,189.5Z" fill="#3f51b5"/><path d="M798.5,128c26.3,0,42.2-7.9,42.2-15.8V101.4c-19,7.5-42.8,9.4-61.4,9.6C780.3,119.3,784.7,128,798.5,128Z" fill="#3f51b5"/><path d="M1011.9,96.4s-2.6-21.1-13.2-36.9-50.1-29-102.7-29-92.2,13.2-102.7,29-13.2,36.9-13.2,36.9a46.7,46.7,0,0,0-1.1,9.3c18.9-.2,43.6-2.2,61.7-10V85.8c0-7.9,13.2-21.1,55.3-21.1s55.3,13.2,55.3,21.1v9.8c18.1,7.8,42.8,9.7,61.7,10A46.8,46.8,0,0,0,1011.9,96.4Z" fill="#3f51b5"/><path d="M951.3,112.2c0,7.9,15.8,15.8,42.1,15.8,13.8,0,18.2-8.7,19.2-17-18.5-.2-42.4-2.1-61.4-9.6Z" fill="#3f51b5"/><path d="M950.4,122.7c-3.9-4.3-7-12.6-7-18.4V97.7a10.6,10.6,0,0,0-10.5-10.5H925c-5.8,0-10.5,3-10.5,6.6S909.7,99,903.9,99H888.1c-5.8,0-10.5-1.6-10.5-5.3s-4.7-6.6-10.5-6.6h-7.9a10.6,10.6,0,0,0-10.5,10.5v6.6c0,5.8-3.1,14.1-7,18.4L810.8,157c-3.9,4.3-7,12.6-7,18.4v39.5a10.6,10.6,0,0,0,10.5,10.5H977.7a10.6,10.6,0,0,0,10.5-10.5V175.4c0-5.8-3.2-14.1-7-18.4ZM842.8,156.3c0-4.1,4.8-7.5,10.6-7.5s10.6,3.3,10.6,7.5-4.8,7.4-10.6,7.4S842.8,160.4,842.8,156.3Zm30.6,26.3a14,14,0,0,1-15,0c-4.2-2.9-4.2-7.6,0-10.5a14,14,0,0,1,15,0C877.6,175,877.6,179.7,873.4,182.6Zm0-42.1a14,14,0,0,1-15,0c-4.2-2.9-4.2-7.6,0-10.5a14,14,0,0,1,15,0C877.6,132.9,877.6,137.6,873.4,140.5Zm22.6,53c-5.9,0-10.6-3.3-10.6-7.5s4.8-7.4,10.6-7.4,10.6,3.3,10.6,7.4S901.9,193.6,896,193.6Zm0-59.6c-5.9,0-10.6-3.3-10.6-7.5s4.8-7.4,10.6-7.4,10.6,3.3,10.6,7.4S901.9,134,896,134Zm22.6-4a14,14,0,0,1,15,0c4.2,2.9,4.2,7.6,0,10.5a14,14,0,0,1-15,0C914.4,137.6,914.4,132.9,918.6,130Zm15,52.6a14,14,0,0,1-15,0c-4.2-2.9-4.2-7.6,0-10.5a14,14,0,0,1,15,0C937.8,175,937.8,179.7,933.6,182.6Zm4.9-18.9c-5.9,0-10.6-3.3-10.6-7.4s4.8-7.5,10.6-7.5,10.6,3.3,10.6,7.5S944.4,163.8,938.6,163.8Z" fill="#3f51b5"/><path d="M1249.1,126.7A67.7,67.7,0,0,0,1181.2,14l-.9.3a67.5,67.5,0,0,0-43.8,84.4,3,3,0,0,0,.3.9,67.2,67.2,0,0,0,14.5,24.8L1035.9,239.9a3,3,0,1,0,4.2,4.2l115.4-115.4a67.5,67.5,0,0,0,14.2,10.1h.1a67.8,67.8,0,0,0,51.4,4.6l.8-.3A67.3,67.3,0,0,0,1249.1,126.7Zm-4.2-4.2a61.4,61.4,0,0,1-24.4,14.9c-24.2-7.8-29.1-21.6-29-31.9a36.8,36.8,0,0,1,6.2-19.6,41.9,41.9,0,0,0,11.2,22.8,33.6,33.6,0,0,0,24.6,10.3,49.6,49.6,0,0,0,17.2-3.4A62.5,62.5,0,0,1,1244.9,122.5Zm-87.3-.1-.5-.3a61.3,61.3,0,0,1-14.5-24c7.8-24.1,21.5-29.1,31.9-29a36.8,36.8,0,0,1,19.6,6.2,41.9,41.9,0,0,0-22.8,11.2c-6.5,6.3-15.1,19.6-6.9,41.8a61.8,61.8,0,0,1-6.5-5.5Zm102.3-63c-7.8,24.2-21.7,29.1-32,29.1a36.8,36.8,0,0,1-19.6-6.2A41.9,41.9,0,0,0,1231.1,71c6.5-6.3,15.1-19.6,6.9-41.8a60.1,60.1,0,0,1,21.9,30.2ZM1157.5,35a61.4,61.4,0,0,1,24.4-14.9c24.1,7.8,29.1,21.6,29,31.9a36.8,36.8,0,0,1-6.2,19.6,41.9,41.9,0,0,0-11.2-22.8c-6.3-6.5-19.6-15.1-41.8-6.9A61.7,61.7,0,0,1,1157.5,35Z" fill="#3f51b5"/><path d="M1672,82.8a3.2,3.2,0,0,1-2.1-.8l-20.2-17.2-18.5,15.3a3.2,3.2,0,0,1-4.7-.6l-10.3-14.7L1600.8,72a3.2,3.2,0,0,1-4.3-4.4C1615.2,31.6,1639.8,11,1664,11c26.3,0,53.2,24.6,72,65.8a3.2,3.2,0,0,1-4.8,4l-15.4-10.6-14.5,11.6a3.2,3.2,0,0,1-4.7-.7L1687.2,67l-12.8,14.7A3.2,3.2,0,0,1,1672,82.8Zm-22.2-25.4a3.2,3.2,0,0,1,2.1.8L1671.7,75l13.5-15.4a3.2,3.2,0,0,1,5.2.3l9.7,14.7,13.6-10.9a3.2,3.2,0,0,1,3.9-.1l7.2,4.9c-17.1-32.2-39.3-51-60.7-51-19.7,0-40.2,16-56.9,44.4l8.9-4.1a3.2,3.2,0,0,1,4,1.1l9.8,14,17.9-14.8A3.3,3.3,0,0,1,1649.8,57.3Z" fill="#3f51b5"/><path d="M1664,245a88.8,88.8,0,0,1-88.7-88.7c0-20.1,6.7-46.2,18-69.9a3.2,3.2,0,0,1,1.6-1.5l19.6-9.2a3.2,3.2,0,0,1,4,1.1l10.5,14.9,18.7-15.4a3.2,3.2,0,0,1,4.2,0l20.3,17.3,12.5-14.4a3.3,3.3,0,0,1,2.7-1.1,3.2,3.2,0,0,1,2.5,1.5l9.2,13.9,14.8-11.9a3.2,3.2,0,0,1,3.9-.1l20.5,14a3.2,3.2,0,0,1,1.2,1.5c8.5,20.8,13.3,42.4,13.3,59.4A88.8,88.8,0,0,1,1664,245ZM1598.7,90.3c-10.6,22.6-16.8,47.2-16.8,66.1a82.2,82.2,0,1,0,164.4,0c0-15.9-4.5-36.3-12.5-56L1716,88.2l-15.7,12.6a3.2,3.2,0,0,1-4.7-.7l-8.8-13.4-11.8,13.6a3.3,3.3,0,0,1-4.6.3L1649.7,83l-19.3,15.9a3.2,3.2,0,0,1-4.7-.6l-10.9-15.5Z" fill="#3f51b5"/><ellipse cx="1609.7" cy="159.5" rx="10.3" ry="20.3" fill="#3f51b5"/><ellipse cx="1710.8" cy="203.3" rx="11.4" ry="12.2" fill="#3f51b5"/><circle cx="1705.1" cy="179" r="5.7" fill="#3f51b5"/><ellipse cx="1621.9" cy="223.5" rx="8.2" ry="19.7" transform="translate(640.1 1533.7) rotate(-61)" fill="#3f51b5"/><ellipse cx="1691.2" cy="29.3" rx="6.9" ry="16.6" transform="translate(742.1 1429.4) rotate(-56.9)" fill="#3f51b5"/><ellipse cx="1632.3" cy="31.8" rx="11.3" ry="4.7" transform="translate(248 897.4) rotate(-33.1)" fill="#3f51b5"/><ellipse cx="1713.1" cy="125.5" rx="13" ry="20.3" transform="translate(27.8 457.7) rotate(-15.3)" fill="#3f51b5"/><path d="M1304.2,72.1a4.2,4.2,0,0,1,3.5-1.5,53.7,53.7,0,0,1,44.7,21.8,57,57,0,0,1,7.6,14.1,54.4,54.4,0,0,1,22.8-23.7,53.7,53.7,0,0,1,74,24,54.3,54.3,0,0,1,39.7-35.1,47.1,47.1,0,0,1,13.5-1.1,4,4,0,0,1,3.4,2.5c.3.7.3,1.4.5,2.1,6.8,14.9,10.2,31.1,11,47.4.8,18-1.4,36.3-7.5,53.3-.5,1.8-2.4,2.7-4.1,3.3a41.5,41.5,0,0,1-9.3.2c-16-.8-31.2-9.6-40.4-22.6a61,61,0,0,1-4.5-7.5,54.7,54.7,0,0,1-14.3,21.7,54,54,0,0,1-24.6,13,57.9,57.9,0,0,1-9,1.2,42.5,42.5,0,0,1-7.5-.1,51.5,51.5,0,0,1-23.9-7.9,53.9,53.9,0,0,1-8.9-6.9,53.7,53.7,0,0,1-13.5-21,54.5,54.5,0,0,1-15.9,19.3,52.5,52.5,0,0,1-27.4,10.6,40.7,40.7,0,0,1-7.2.2c-.8,0-1.8-.3-2.5.2a3.9,3.9,0,0,1-4.6-.5,4.9,4.9,0,0,1-1.3-2.1,132.7,132.7,0,0,1-7.2-34.9,145.3,145.3,0,0,1,3.3-43.7,117.5,117.5,0,0,1,8.1-23.2c.6-1,.5-2.3,1.4-3.2m6,6.5a74.7,74.7,0,0,0-4.6,11.1,118.3,118.3,0,0,0-5.7,25.5,134.5,134.5,0,0,0,5.2,56.2,32,32,0,0,0,6.8.1,44.7,44.7,0,0,0,24.8-9,46.9,46.9,0,0,0,16.1-22.4,56.6,56.6,0,0,1-17.2,4.1,63,63,0,0,1-6.7.3,4,4,0,0,1,0-7.9,78.7,78.7,0,0,0,11.1-.9,52.8,52.8,0,0,0,14.4-5,63.6,63.6,0,0,1,.7-8.1,6.5,6.5,0,0,1-1.4-.9,51.3,51.3,0,0,0-23.8-14,5.4,5.4,0,0,1-2.7-1.2,4,4,0,0,1,3.8-6.7,59,59,0,0,1,21.8,10.5,46,46,0,0,0-22.5-26.5,45.5,45.5,0,0,0-20-5.1m184.9,1.8a46.1,46.1,0,0,0-23,15.1,47.7,47.7,0,0,0-7.3,12.4,60,60,0,0,1,21.6-9.9,4,4,0,0,1,3.4.8,4,4,0,0,1-1.8,7,51.6,51.6,0,0,0-24.7,13.8,8.4,8.4,0,0,1-1.6,1.3,41.4,41.4,0,0,0,.4,5.5,51.2,51.2,0,0,0,9.1,3.4,58.3,58.3,0,0,0,14.2,1.9c1.5,0,3.2-.4,4.5.6a4,4,0,0,1,.6,6.1c-1.3,1.4-3.4,1.2-5.1,1.3l-6.7-.4a57.2,57.2,0,0,1-16.1-3.9,47.4,47.4,0,0,0,4.3,11.6,50.7,50.7,0,0,0,6.9,9.9c1.4,1.5,3,2.8,4.5,4.3a45.8,45.8,0,0,0,21.6,10,47.8,47.8,0,0,0,10.6.5,112.9,112.9,0,0,0,4-14.8,138.6,138.6,0,0,0,.5-50.9,110.7,110.7,0,0,0-8.3-27.1,48.5,48.5,0,0,0-11.5,1.7m-102.8,6.9,59.4,59.4a45.1,45.1,0,0,0,2.6-12.6c-.2-1.7-.4-3.4-.7-5.1s.1-4.7-.1-7a46.9,46.9,0,0,0-17.3-28.1,48.3,48.3,0,0,0-12-6.6,45.8,45.8,0,0,0-32,0M1374.7,99l65.5,65.5a46,46,0,0,0,7.9-10.1l-63.4-63.4a47.5,47.5,0,0,0-10,8.1m-9.3,14.9a48.1,48.1,0,0,0-3.2,16.2c-.1,1,.3,1.9.3,2.8a24.1,24.1,0,0,0,.8,7.5,46,46,0,0,0,38.4,36.4,57.7,57.7,0,0,0,8,.5,52.4,52.4,0,0,0,10.1-1.4,46.5,46.5,0,0,0,14.2-6.4l-64.2-64.2A48.9,48.9,0,0,0,1365.4,114Z" fill="#3f51b5"/></svg>