<svg id="Layer_1" data-name="Layer 1" xmlns="http://www.w3.org/2000/svg" width="1280" height="256" viewBox="0 0 1280 256"><title>card-sprite</title><path d="M128.3,11a117,117,0,0,0-117,117,118.6,118.6,0,0,0,4.1,30h0l1,3.6h0l1,2.5h0C32.6,211.9,77.9,245,128.3,245A116.6,116.6,0,0,0,244.7,135.1h0v-6.6A116.4,116.4,0,0,0,128.3,11Zm0,81.9A35.1,35.1,0,1,1,93.2,128,35.2,35.2,0,0,1,128.3,92.9Zm0,146c-47.3,0-90-31-104.8-75.3,1.5,0,3.1-.5,4.1-.5h7.1c9.2,1.5,15.8,8.1,22.9,15.3,5.1,5.1,10.7,10.7,17.8,14.2,9.2,4.6,19.8,5.6,29,6.1,3.6,0,6.6.5,10.2.5,7.1,0,13.2-1,17.8-3.1a39.9,39.9,0,0,0,9.2-5.6c3.1-2,5.6-4.1,8.6-5.6a18.3,18.3,0,0,1,5.6-1c3.6,0,7.1,1,8.6,4.6a9.9,9.9,0,0,1,.5,4.1c0,2.5,0,5.1,1.5,7.1a1.1,1.1,0,0,0,1,1l1,1a10.4,10.4,0,0,0,7.6,3.1h.5a9.9,9.9,0,0,0,4.1-.5,20.8,20.8,0,0,0,10.2-8.1A63.1,63.1,0,0,0,203,169.7a34.4,34.4,0,0,0,1-7.1,52.2,52.2,0,0,1,2.5-12.2c1.5-4.6,5.6-10.2,11.2-10.7h5.6a8.7,8.7,0,0,1,3.6.5H233a1.9,1.9,0,0,0,1.5-.5c.5,0,1-.5,2-.5s1,0,1-.5h.5C233.6,194.6,186.2,238.9,128.3,238.9Z" fill="#3f51b5"/><path d="M267,55.3V99.7L407.7,240.4a15.7,15.7,0,0,0,22.2,0l66.5-66.5a15.7,15.7,0,0,0,0-22.2L355.7,11H311.3Zm73.5,28.3a15.7,15.7,0,1,1,0-22.2A15.7,15.7,0,0,1,340.5,83.7Z" fill="#3f51b5"/><path d="M669.2,121.2a47.7,47.7,0,0,0-28-86,47.2,47.2,0,0,0-47.3,47.2,48.5,48.5,0,0,0,19.3,38.8c-26.8,10.9-45.6,38.2-45.6,68.9,0,40.8,147.2,40.8,147.2,0C714.8,159.5,696,132.1,669.2,121.2Z" fill="#3f51b5"/><path d="M723.5,122.4a34.9,34.9,0,0,0-32.8-60.7,53.6,53.6,0,0,1,4.2,20.9,54.2,54.2,0,0,1-14.3,36.7c25,14,40.7,40.6,40.7,70.2a22.2,22.2,0,0,1-.3,3.7c19.9-2.5,36.1-9.3,36.1-20.4C757,148.9,743.1,130.4,723.5,122.4Z" fill="#3f51b5"/><path d="M561.2,189.5a80,80,0,0,1,39.3-69.4l1.1-1a54.5,54.5,0,0,1-14.1-36.6,53.3,53.3,0,0,1,3.9-19.9,34.8,34.8,0,0,0-49,31.7,35.1,35.1,0,0,0,14.2,28.2c-19.7,8-33.5,26.5-33.5,50.3,0,11.5,17.6,18.4,38.6,20.7A22.4,22.4,0,0,1,561.2,189.5Z" fill="#3f51b5"/><path d="M798.5,128c26.3,0,42.2-7.9,42.2-15.8V101.4c-19,7.5-42.8,9.4-61.4,9.6C780.3,119.3,784.7,128,798.5,128Z" fill="#3f51b5"/><path d="M1011.9,96.4s-2.6-21.1-13.2-36.9-50.1-29-102.7-29-92.2,13.2-102.7,29-13.2,36.9-13.2,36.9a46.7,46.7,0,0,0-1.1,9.3c18.9-.2,43.6-2.2,61.7-10V85.8c0-7.9,13.2-21.1,55.3-21.1s55.3,13.2,55.3,21.1v9.8c18.1,7.8,42.8,9.7,61.7,10A46.8,46.8,0,0,0,1011.9,96.4Z" fill="#3f51b5"/><path d="M951.3,112.2c0,7.9,15.8,15.8,42.1,15.8,13.8,0,18.2-8.7,19.2-17-18.5-.2-42.4-2.1-61.4-9.6Z" fill="#3f51b5"/><path d="M950.4,122.7c-3.9-4.3-7-12.6-7-18.4V97.7a10.6,10.6,0,0,0-10.5-10.5H925c-5.8,0-10.5,3-10.5,6.6S909.7,99,903.9,99H888.1c-5.8,0-10.5-1.6-10.5-5.3s-4.7-6.6-10.5-6.6h-7.9a10.6,10.6,0,0,0-10.5,10.5v6.6c0,5.8-3.1,14.1-7,18.4L810.8,157c-3.9,4.3-7,12.6-7,18.4v39.5a10.6,10.6,0,0,0,10.5,10.5H977.7a10.6,10.6,0,0,0,10.5-10.5V175.4c0-5.8-3.2-14.1-7-18.4ZM842.8,156.3c0-4.1,4.8-7.5,10.6-7.5s10.6,3.3,10.6,7.5-4.8,7.4-10.6,7.4S842.8,160.4,842.8,156.3Zm30.6,26.3a14,14,0,0,1-15,0c-4.2-2.9-4.2-7.6,0-10.5a14,14,0,0,1,15,0C877.6,175,877.6,179.7,873.4,182.6Zm0-42.1a14,14,0,0,1-15,0c-4.2-2.9-4.2-7.6,0-10.5a14,14,0,0,1,15,0C877.6,132.9,877.6,137.6,873.4,140.5Zm22.6,53c-5.9,0-10.6-3.3-10.6-7.5s4.8-7.4,10.6-7.4,10.6,3.3,10.6,7.4S901.9,193.6,896,193.6Zm0-59.6c-5.9,0-10.6-3.3-10.6-7.5s4.8-7.4,10.6-7.4,10.6,3.3,10.6,7.4S901.9,134,896,134Zm22.6-4a14,14,0,0,1,15,0c4.2,2.9,4.2,7.6,0,10.5a14,14,0,0,1-15,0C914.4,137.6,914.4,132.9,918.6,130Zm15,52.6a14,14,0,0,1-15,0c-4.2-2.9-4.2-7.6,0-10.5a14,14,0,0,1,15,0C937.8,175,937.8,179.7,933.6,182.6Zm4.9-18.9c-5.9,0-10.6-3.3-10.6-7.4s4.8-7.5,10.6-7.5,10.6,3.3,10.6,7.5S944.4,163.8,938.6,163.8Z" fill="#3f51b5"/><path d="M1249.1,126.7A67.7,67.7,0,0,0,1181.2,14l-.9.3a67.5,67.5,0,0,0-43.8,84.4,3,3,0,0,0,.3.9,67.2,67.2,0,0,0,14.5,24.8L1035.9,239.9a3,3,0,1,0,4.2,4.2l115.4-115.4a67.5,67.5,0,0,0,14.2,10.1h.1a67.8,67.8,0,0,0,51.4,4.6l.8-.3A67.3,67.3,0,0,0,1249.1,126.7Zm-4.2-4.2a61.4,61.4,0,0,1-24.4,14.9c-24.2-7.8-29.1-21.6-29-31.9a36.8,36.8,0,0,1,6.2-19.6,41.9,41.9,0,0,0,11.2,22.8,33.6,33.6,0,0,0,24.6,10.3,49.6,49.6,0,0,0,17.2-3.4A62.5,62.5,0,0,1,1244.9,122.5Zm-87.3-.1-.5-.3a61.3,61.3,0,0,1-14.5-24c7.8-24.1,21.5-29.1,31.9-29a36.8,36.8,0,0,1,19.6,6.2,41.9,41.9,0,0,0-22.8,11.2c-6.5,6.3-15.1,19.6-6.9,41.8a61.8,61.8,0,0,1-6.5-5.5Zm102.3-63c-7.8,24.2-21.7,29.1-32,29.1a36.8,36.8,0,0,1-19.6-6.2A41.9,41.9,0,0,0,1231.1,71c6.5-6.3,15.1-19.6,6.9-41.8a60.1,60.1,0,0,1,21.9,30.2ZM1157.5,35a61.4,61.4,0,0,1,24.4-14.9c24.1,7.8,29.1,21.6,29,31.9a36.8,36.8,0,0,1-6.2,19.6,41.9,41.9,0,0,0-11.2-22.8c-6.3-6.5-19.6-15.1-41.8-6.9A61.7,61.7,0,0,1,1157.5,35Z" fill="#3f51b5"/></svg>